<?xml version="1.0" encoding="UTF-8"?>
<svg version="1.1" viewBox="0 0 2000 1500" width="190" height="80" xmlns="http://www.w3.org/2000/svg">
<path transform="translate(336,752)" d="m0 0 17 1 12 3 13 6 11 7 9 9 8 14 4 11 20 1 13 3 15 8 12 11 8 10 7 15 3 9 1 6v21l-4 14-2 3v3l11 6 14 12 10 14 8 17 4 18v20l-4 16-8 16-8 10h-2l3 5 7 10 5 15 1 5v22l-3 15-4 11-6 12-8 11-5 6-11 9-16 9-20 6-14 2-3 10-8 16-11 14-11 10-15 9-16 6-19 4h-27l-15-3-16-6-14-9-10-10-7-12-3-9-1-6v-67h-56l1 5-1 30 7 2 8 6 6 7 3 7 1 5v7l-3 10-6 9-8 6-9 3h-12l-9-3-10-9-6-12-1-10 3-11 6-8 8-6 7-3 1-46 2-3 3-1h65v-43l-80 1-11 14-12 16-14 17-2 1h-40l-2 6-6 9-8 6-5 2-14 1-10-3-6-4-7-8-4-10v-13l4-10 8-9 8-4 3-1h17l9 4 6 5 5 8 2 5 5 1h28l5-5 10-13 16-21 7-8 1-1 18-1h69v-42l-8 1h-191l-1 5-8 11-10 6-9 2-11-1-10-5-7-7-6-10v-17l6-10 5-6 8-5 7-2h11l10 3 10 9 6 11 198 1v-47h-87l-8-9-12-16-14-18-5-5h-32l-7 12-9 8-9 3h-14l-10-4-6-5-6-10-2-6v-12l3-9 7-9 8-5 6-2h14l9 3 9 8 7 12 40 1 10 11 14 19 14 18 80 1v-47h-57l-6-5-9-11-9-10-7-9-4-1-7 2h-11l-9-3-10-9-5-9-1-3v-15l6-12 9-8 11-4h8l11 3 8 5 7 10 3 10v8l-4 11-1 5 11 12 9 11 5 6 5 1h46l1-63 5-15 9-13 8-8 12-8 15-6 13-3zm-7 15-14 3-13 5-11 8-7 7-6 11-2 8-1 11v14l2 7 10 7 9 3h17l9-4 5-5 5-8 7 1 3 3-1 7-6 9-6 5-9 4-10 2h-11l-16-4-7-3-1 26v49l1 42 8-2 9-4 22-12 7-3 6-1h12l12 3 8 5 6 7 7 13 13 6 11 2h8l16-4 9-6 6-7 3-7 3-13 3-2 5 1 3 3 1 4-2 11-4 10-7 9-11 8-10 4-2 6v7l3 9 4 5 5 4 9 3 7 2 2 2v6l-3 3h-10l-11-4-8-6-6-7-4-9-1-4-1-14-14-1-14-4-6-1-4 8-5 6-4 3-5-2-3-3v-5l7-9 1-3v-11l-4-8-5-4-6-2h-15l-10 4-15 9-14 6-12 3-1 4v128l11-6 11-4 7-1h9l12 2 12 6 7 6 6 10 3 10v6l-5 5-6-1-2-4-2-9-3-6-8-7-11-4h-16l-10 4-8 7-6 12-1 16v18l2 12 4 9 9 10 9 7 14 6 14 3 16 1 18-2 17-5 13-7 10-8 9-10 8-13 4-12 1-5v-18l-4-13-6-11-9-10-8-7-14-7-7-2-11-1-3-3-1-19-3-10-5-8-8-7-9-3h-15l-8 4-5 6h-6l-3-3-1-4 4-7 6-5 9-4 6-1h12l12 3 9 5 8 7 6 10 4 12 2 14 16 5 10 5 15 12 4 1 10-3 9-5 6-5 5-8 1-7v-6l4-4 7 1 3 8-2 12-5 10-6 7-9 6-8 4-7 2 1 5 6 15 3 18 5 1 19-5 17-9 12-11 9-13 6-14 3-13v-24l-3-10-5-8-8-7-4-3 1-7 12-12 8-13 4-12 1-5v-19l-4-16-7-14-8-10-10-9-12-6-9-3-3-3v-5l8-10 4-10 1-14-2-13-5-13-6-9-8-9-11-7-11-4-6-1h-14l-1 1-1 16-5 21-7 16-3 5 1 3 10 6 7 9 3 8v14l-3 5-5 1-4-1-1-8v-7l-4-8-5-5-4-2h-7l-13 8-5 2h-6l-4-5 1-5 5-3 12-7 9-10 6-10 6-17 3-18v-11l-3-15-6-12-7-8-11-7-13-5-11-2zm-177 35-6 3-5 8-1 8 3 7 5 5 4 2h10l8-5 3-4 1-4v-7l-3-7-6-5-3-1zm-83 70-8 3-6 8-1 8 3 8 6 5 5 2h8l8-5 3-5 1-4v-7l-4-8-6-4zm-43 111-6 4-5 8v8l4 8 5 4 3 1h9l6-3 5-6 1-2v-12l-4-6-6-4zm40 105-6 4-4 5-1 2v12l4 6 7 4 8 1 8-4 5-6 1-4v-8l-3-6-6-5-3-1zm129 82-7 3-5 5-2 6 1 9 4 6 6 4 8 1 8-3 5-6 2-5v-7l-4-8-5-4-4-1z" fill="#663399"/>
<path transform="translate(1123,995)" d="m0 0h19l9 4 7 6 5 9 2 1 2-4 5-5 7-6 12-5h18l10 4 8 7 7 14 2 12v183h-30l-1-182-4-8-5-3-4-1h-9l-8 3-5 6-2 9-1 176h-29l-1-1-1-182-5-8-8-3h-7l-8 3-5 6-3 6-1 34v144l-1 1h-29v-218h29l1 1v18l8-11 11-8z" fill="#FFF"/>
<path transform="translate(1900,957)" d="m0 0h29l1 3v56l8-10 8-7 10-4h17l10 4 6 5 6 10 4 11 1 4v186h-30l-1-3-1-179-3-6-1-3-10-3-10 1-8 5-5 10-1 19v157l-1 2h-29l-1-3v-252z" fill="#FFF"/>
<path transform="translate(723,957)" d="m0 0h18l10 2 10 5 5 5 5 6 5 10 3 12 2 20v41l-1 1h-28l-1-3-1-48-2-12-4-8-5-4-8-1-9 3-4 5-3 8-2 11-1 15v128l2 21 3 10 5 6 5 2h10l6-4 4-6 2-9 1-9 1-51 3-1 27 1 1 7-1 40-3 21-5 15-7 10-8 7-10 4-11 2h-10l-12-2-12-6-8-8-8-16-4-16-2-21v-128l2-20 4-15 7-14 9-9 10-5z" fill="#FFF"/>
<path transform="translate(852,995)" d="m0 0h24l14 5 10 9 6 11 4 13 2 17v113l-2 18-5 15-7 10-7 6-9 4-10 2h-18l-11-3-9-5-7-7-7-14-3-13-2-19v-100l2-20 4-15 5-10 8-9 8-5zm8 24-6 3-5 6-3 10-1 15v108l2 18 5 10 4 3 3 1h10l6-4 5-8 2-12v-128l-3-12-5-7-7-3z" fill="#FFF"/>
<path transform="translate(1677,995)" d="m0 0h24l12 4 9 7 7 11 4 13 2 20v57h-65l1 63 2 12 3 6 3 3 4 1h11l5-3 4-9 1-9 1-37h29l1 1v12l-1 22-3 20-5 12-9 10-8 4-12 3h-19l-11-3-9-5-8-9-6-13-3-15-1-13v-112l2-15 4-12 5-10 9-9 10-5zm7 24-7 4-5 8-2 9-1 46 1 1h35v-49l-2-10-5-7-4-2z" fill="#FFF"/>
<path transform="translate(982,994)" d="m0 0h15l12 3 8 4 7 7 7 14 3 13 1 9 1 28-2 1h-26l-1-1-1-26-2-13-3-7-5-5h-12l-6 4-3 5-2 15 2 13 4 10 7 10 3 3v2l3 1v2l4 2 19 19 8 9 9 15 5 14 2 9v22l-3 14-5 10-9 10-12 6-9 2h-18l-13-4-9-6-7-8-5-12-3-12-1-9v-28l4-1h24l1 1 1 28 3 14 4 7v2l7 2 9-1 6-4 3-6 1-6v-17l-3-12-7-13-11-13-15-14-8-8-10-14-6-12-4-13-1-7v-14l2-12 4-11 7-9 9-7 11-4z" fill="#FFF"/>
<path transform="translate(1385,995)" d="m0 0h24l10 3 9 6 6 7 5 11 3 17 1 16v22l-4 1h-25l-1-1-1-41-3-9-5-5-2-1h-10l-7 4-4 8-2 10v127l2 12 4 6 5 3 9 1 8-4 4-9 1-8 1-39h30v23l-1 17-4 20-5 10-7 8-12 6-9 2h-18l-12-3-10-6-6-7-6-12-3-11-2-20v-107l2-17 3-12 6-12 10-10 8-4z" fill="#FFF"/>
<path transform="translate(1805,995)" d="m0 0h25l12 4 9 7 6 10 3 8 2 9 1 11 1 32-2 2h-27l-1-1-1-35-2-13-4-6-5-2h-9l-6 3-4 5-3 10-1 22v89l1 24 3 11 5 5 7 2 8-1 6-5 3-10 1-10 1-34h29l1 5-1 29-2 16-3 11-6 11-5 5-5 4-11 4-6 1h-18l-12-3-9-6-8-9-5-12-3-12-1-10-1-33v-46l1-40 2-14 5-16 7-10 8-7 10-4z" fill="#FFF"/>
<path transform="translate(1534,960)" d="m0 0h84l1 4-1 20-2 1h-23l-1 230-18 1h-11l-1-1v-230h-27l-1-1-1-23z" fill="#FFF"/>
<path transform="translate(1279,997)" d="m0 0h28l1 1v217h-30v-217z" fill="#FFF"/>
<path transform="translate(1278,950)" d="m0 0h30v27h-30z" fill="#FFF"/>
</svg>
