<?xml version="1.0" encoding="UTF-8"?>
<svg version="1.1" viewBox="0 0 2000 2000" width="500" height="500" xmlns="http://www.w3.org/2000/svg">
<path transform="translate(1195,258)" d="m0 0h45l25 3 23 5 19 6 16 6 20 10 21 14 11 9 10 9 7 7 11 14 10 15 9 17 8 21 5 17v3l20-2h19l22 2 24 5 21 7 21 10 16 10 12 9 14 12 14 14 9 11 10 14 12 20 9 19 9 25 5 21 3 19 1 13v18l-2 22-5 22-6 18-8 16-2 5 16 8 14 8 14 10 10 8 12 11 15 15 11 14 8 11 10 16 13 25 10 26 6 22 4 21 2 15 1 15v16l-2 22-3 18-5 20-8 22-8 17-10 17-11 16-11 13-9 10 2 4 10 10 8 11 8 14 7 15 7 21 5 26 2 23v23l-3 30-5 24-7 25-8 21-12 25-12 20-12 16-8 10-11 12-12 12-11 9-13 10-16 10-18 10-15 7-18 7-28 8-25 5-30 4-4 15-7 20-10 22-13 22-10 14-10 13-11 13-21 21-14 11-17 12-21 12-21 10-28 10-26 7-28 5-32 3h-31l-23-2-27-4-25-6-24-8-18-8-21-11-12-8-12-9-12-11-12-12-10-13-11-18-8-17-6-18-4-20-1-9v-197h-167v108l11 3 16 8 10 7 10 9 8 9 8 14 5 12 4 16 1 9v10l-3 19-5 14-6 12-10 13-11 11-10 7-14 7-11 4-16 3h-20l-19-4-18-8-11-8-10-9-8-9-8-13-6-14-4-16-1-9v-9l3-20 6-16 8-14 9-11 8-8 10-7 15-8 12-4h2v-132l3-9 5-6 7-4 4-1h193v-130h-242l-2 5-11 14-13 17-30 39-14 18-13 17-10 13-11 14-5 6-7 4-5 1-116 1-5 14-6 12-10 14-9 9-14 10-15 7-14 4-12 2h-16l-20-4-16-7-12-7-13-12-7-8-8-13-5-11-4-13-2-14v-13l3-17 4-12 7-14 9-12 5-6h2v-2l13-10 10-6 16-6 15-3h22l16 3 13 5 14 8 10 8 10 10 10 15 7 16 3 7h99l5-3 13-17 20-26 14-18 20-26 13-17 14-18 9-12 5-5 7-5 10-1h246l2-1v-124h-597l-8 20-8 13-9 11-10 9-13 8-11 5-13 4-12 2h-19l-16-3-15-6-11-6-9-7-9-8-10-13-8-15-5-15-2-11v-21l3-16 6-15 8-14 12-14 12-10 12-7 16-6 16-3h19l13 2 18 6 15 9 9 7v2l4 2 10 12 9 16 6 16h597v-139l-256-1-8-4-10-11-9-12-10-13-14-18-12-16-28-36-12-16-14-18-2-3h-103l-5 14-6 12-10 14-9 9-13 9-16 8-14 4-13 2h-15l-20-4-16-7-12-7-13-12-7-8-8-13-5-11-4-13-2-14v-13l3-17 4-12 7-14 9-12 7-8 13-10 10-6 15-6 16-3h22l16 3 13 5 16 9 13 12 8 9 8 13 9 21 118 1 8 4 10 11 12 16 14 18 13 17 14 18 12 16 35 45 2 2 240 1-1-5 1-136h-165l-8-2-6-4-7-7-9-11-9-10-9-11-10-11-9-11-9-10-9-11-11-12-9-11-3-1-13 5-14 3-17 1-16-2-16-5-14-7-12-9-12-12-9-14-6-12-4-13-2-12v-18l3-17 6-15 6-11 10-13 9-9 15-10 15-7 18-4h26l18 4 17 8 14 10 12 12 10 15 6 13 4 15 1 7v21l-3 15-5 14-9 15-1 3 9 11 9 10 9 11 10 11 9 11 11 12 9 11 9 10 7 8 2 1h151l1-175 3-21 5-19 7-18 10-19 10-14 9-11 6-7h2l1-3 8-7 12-10 18-12 23-12 18-8 21-7 26-6 19-3zm7 44-24 3-23 5-21 7-18 8-18 10-19 14-6 5v2l-4 2v2h-2l-9 11-7 10-8 14-7 19-4 22-1 76 1 8 9 9 14 10 15 8 18 6 16 3 11 1h10l21-3 15-5 12-7 9-8 6-10 4-11 5-7 9-4h10l10 5 5 8 1 3v10l-5 15-8 14-8 9v2l-4 2-9 8-18 10-17 6-17 4-17 2h-20l-23-3-19-5-16-6-16-8-4-1v352l12-2 15-4 16-6 16-8 29-17 16-10 16-8 14-6 15-4 13-2h26l19 3 19 5 19 9 13 10 7 7 10 14 8 17 5 14 9 8 14 8 13 6 17 5 18 3 11 1h17l18-2 20-5 17-7 14-8 11-9 8-8 10-15 6-16 3-13 3-21 5-8 5-4 6-2h8l8 3 5 4 4 8 1 11-3 21-5 19-8 19-9 14-8 10-9 10-15 12-15 9-17 8-13 5-3 3-3 13-1 13 2 16 5 14 5 9 7 9 8 8 13 8 11 5 12 3 15 3 8 4 5 8 1 3v11l-6 10-7 4-3 1h-12l-20-4-15-5-16-8-14-10-12-11-10-13-9-16-6-15-4-16-1-8v-24l1-5-8-1-22-1-20-3-17-4-20-7-12-6h-3l-6 15-7 13-8 10-9 9-8 4-4 1h-8l-9-4-6-8-2-7 1-8 4-8 13-13 6-12 3-11v-20l-3-12-8-16-10-10-14-7-21-5-17-1-17 2-15 5-23 12-24 15-19 11-20 9-21 7-23 5-10 2-1 1v398l5-2 7-6 16-10 15-7 19-6 17-3 12-1h15l20 2 21 5 16 6 17 9 14 10 9 8 9 11 7 10 8 16 5 16 3 17v12l-3 8-5 6-9 4h-10l-8-4-5-6-3-8-2-18-3-10-6-12-7-9-7-7-10-7-16-8-16-5-12-2h-30l-18 4-16 7-10 6-10 8-7 7-10 14-8 17-3 10-1 8v96l2 18 5 19 7 16 7 11 10 13 14 14 16 12 21 12 24 10 19 6 25 5 24 3h46l30-4 26-6 19-6 16-6 21-10 19-12 14-10 15-14 14-14 10-13 9-13 9-15 11-23 8-24 4-20 1-9v-26l-4-24-5-18-9-21-11-19-12-16-11-12-15-15-13-10-14-9-21-11-19-7-12-3-18-2h-7l-9-3-7-6-3-7-1-43-3-19-6-19-9-17-7-9-11-11-10-7-17-8-19-5-20-1-16 2-15 5-11 7-10 14-5 4-8 2-9-1-7-4-6-8-1-4v-8l4-11 8-11 7-7 10-7 16-8 17-5 21-3h18l17 2 21 5 19 8 14 8 14 11 12 12 10 13 10 18 8 21 4 16 3 20 2 22 25 6 18 6 23 11 19 12 16 12 14 12 8 8 2 1h9l17-3 15-5 16-8 11-7 14-12 9-11 8-14 4-14v-11l-1-11 3-9 5-6 9-4h8l9 3 6 7 3 7 1 5v25l-4 17-8 18-9 14-8 10-7 8-8 7-15 11-16 9-15 7-19 6-5 2 6 11 8 16 8 20 6 22 3 18 1 8 1 19 4 1 29-5 23-6 20-7 25-12 16-10 11-8 13-11 7-6v-2l4-2 7-8 12-15 11-17 13-25 9-24 6-22 4-25 1-9v-35l-3-22-5-19-6-15-7-13-9-11-10-8-17-9-4-5-2-5v-13l5-8 9-9 8-7 11-11 9-11 7-10 8-13 8-16 6-14 5-18 4-21 1-10v-29l-4-27-6-23-8-21-8-17-13-21-10-13-12-13-13-13-13-10-19-12-20-9-26-8-6-5-4-9v-9l3-7 7-8 10-12 8-13 7-19 4-20 1-10v-16l-3-25-6-23-9-23-11-20-10-14-9-11-16-16-13-10-13-8-16-8-21-7-14-3-9-1h-35l-7 2-1 28-2 22-5 27-6 23-9 26-12 26-10 18-6 8v2l21 11 12 9 9 8 10 13 6 10 7 18 3 15v26l-3 13-5 8-7 4-11 1-9-3-7-8-2-5v-9l1-7v-15l-3-12-6-12-9-10-9-7-10-5-14-4-6-1-16 13-13 8-16 8-15 5h-13l-8-4-5-8-2-10 3-9 6-7 12-5 13-6 12-7 13-11 10-10 11-14 12-19 11-21 8-20 6-19 6-25 4-29v-41l-3-20-5-19-6-15-7-14-12-17-9-10-8-7-13-10-15-9-17-8-24-8-24-5-19-2zm-535 105-13 4-9 5-10 9-7 11-4 13v17l4 13 6 10 10 10 14 7 8 2h16l13-4 10-6 8-7 6-9 5-13 1-7v-9l-3-13-5-10-9-11-11-7-11-4-5-1zm-257 213-12 3-12 6-9 8-7 11-4 11-1 4v15l3 12 7 12 9 9 10 6 12 4h19l12-4 11-7 8-8 6-10 3-9 1-5v-15l-4-13-6-10-6-7-10-7-10-4-11-2zm-124 334-12 4-9 6-7 6-7 11-4 9-2 14 2 14 5 12 8 10 9 7 10 5 6 2 7 1h8l10-2 12-5 9-7 8-9 5-10 3-14-1-15-4-11-7-11-7-7-12-7-9-3zm124 318-12 3-12 6-9 8-7 11-4 11-1 4v15l3 12 5 9 9 10 8 6 12 5 4 1h19l12-4 11-7 8-8 6-10 3-9 1-5v-14l-3-12-5-9-8-10-10-7-10-4-11-2zm386 248-13 2-9 4-9 6-8 8-7 13-3 13v11l3 12 5 10 9 10 8 6 11 5 12 2h8l12-3 12-6 9-8 7-10 4-11 1-5v-16l-4-13-6-10-6-7-10-7-10-4z" fill="#3B099F"/>
</svg>
